<svg width="23" height="23" viewBox="0 0 23 23" fill="none" xmlns="http://www.w3.org/2000/svg">
<path d="M11.5 20.9091C12.7356 20.9091 13.9591 20.6657 15.1007 20.1929C16.2423 19.72 17.2795 19.0269 18.1532 18.1532C19.0269 17.2795 19.72 16.2423 20.1929 15.1007C20.6657 13.9591 20.9091 12.7356 20.9091 11.5C20.9091 10.2644 20.6657 9.04086 20.1929 7.8993C19.72 6.75773 19.0269 5.72048 18.1532 4.84677C17.2795 3.97305 16.2423 3.27998 15.1007 2.80713C13.9591 2.33428 12.7356 2.09091 11.5 2.09091C9.00455 2.09091 6.61131 3.08222 4.84677 4.84677C3.08222 6.61131 2.09091 9.00455 2.09091 11.5C2.09091 13.9954 3.08222 16.3887 4.84677 18.1532C6.61131 19.9178 9.00455 20.9091 11.5 20.9091ZM23 11.5C23 17.8511 17.8511 23 11.5 23C5.14886 23 0 17.8511 0 11.5C0 5.14886 5.14886 0 11.5 0C17.8511 0 23 5.14886 23 11.5ZM14.6364 16.1146L10.4545 11.9328V4.70455H12.5455V11.0672L16.1146 14.6364L14.6364 16.1146Z" fill="white"/>
</svg>
