<svg width="24" height="25" viewBox="0 0 24 25" fill="none" xmlns="http://www.w3.org/2000/svg">
<path d="M12 22.4284C13.273 22.4284 14.5335 22.1734 15.7095 21.678C16.8856 21.1825 17.9541 20.4563 18.8543 19.5408C19.7544 18.6253 20.4684 17.5385 20.9555 16.3423C21.4426 15.1462 21.6934 13.8641 21.6934 12.5694C21.6934 11.2747 21.4426 9.9927 20.9555 8.79655C20.4684 7.6004 19.7544 6.51355 18.8543 5.59806C17.9541 4.68256 16.8856 3.95636 15.7095 3.46089C14.5335 2.96543 13.273 2.71042 12 2.71042C9.42918 2.71042 6.96364 3.74914 5.14578 5.59806C3.32793 7.44698 2.30667 9.95466 2.30667 12.5694C2.30667 15.1842 3.32793 17.6919 5.14578 19.5408C6.96364 21.3897 9.42918 22.4284 12 22.4284ZM23.8475 12.5694C23.8475 19.2243 18.543 24.6193 12 24.6193C5.45701 24.6193 0.152588 19.2243 0.152588 12.5694C0.152588 5.9146 5.45701 0.519531 12 0.519531C18.543 0.519531 23.8475 5.9146 23.8475 12.5694ZM15.2311 17.4047L10.923 13.0229V5.44903H13.0771V12.1159L16.7541 15.8558L15.2311 17.4047Z" fill="#495EF6"/>
</svg>
