<svg width="24" height="25" viewBox="0 0 24 25" fill="none" xmlns="http://www.w3.org/2000/svg">
<path d="M1.5 23.0698H17.6465C18.9287 23.0744 20.1601 22.5619 21.0701 21.6449C21.9802 20.728 22.4942 19.4816 22.4993 18.1799V5.37673C22.5185 4.33489 22.1595 3.32228 21.4905 2.53198C20.8216 1.74167 19.8895 1.22894 18.8721 1.09156C17.9378 0.993153 16.9991 1.23097 16.2198 1.76351C15.4406 2.29606 14.8702 3.0895 14.6084 4.00537C14.3466 4.92124 14.4098 5.90138 14.7871 6.77473C15.1645 7.64808 15.8319 8.35919 16.6729 8.78394C15.594 11.5397 15.594 14.6101 16.6729 17.3659C16.0391 16.1253 15.1311 15.0504 14.0199 14.2253C12.9088 13.4002 11.6247 12.8474 10.2681 12.6099C8.91154 12.3725 7.51923 12.457 6.20013 12.8567C4.88104 13.2565 3.67094 13.9607 2.66451 14.9142" stroke="#495EF6" stroke-width="2" stroke-linecap="round" stroke-linejoin="round"/>
</svg>
