<svg width="32" height="32" viewBox="0 0 32 32" fill="none" xmlns="http://www.w3.org/2000/svg">
<g clip-path="url(#clip0_124_10751)">
<path d="M23.4376 9.375C23.4376 9.5822 23.3553 9.78091 23.2088 9.92743C23.0623 10.0739 22.8636 10.1562 22.6564 10.1562H21.0939V11.7188C21.0939 11.926 21.0116 12.1247 20.8651 12.2712C20.7185 12.4177 20.5198 12.5 20.3126 12.5C20.1054 12.5 19.9067 12.4177 19.7602 12.2712C19.6137 12.1247 19.5314 11.926 19.5314 11.7188V10.1562H17.9689C17.7617 10.1562 17.563 10.0739 17.4165 9.92743C17.2699 9.78091 17.1876 9.5822 17.1876 9.375C17.1876 9.1678 17.2699 8.96909 17.4165 8.82257C17.563 8.67606 17.7617 8.59375 17.9689 8.59375H19.5314V7.03125C19.5314 6.82405 19.6137 6.62534 19.7602 6.47882C19.9067 6.33231 20.1054 6.25 20.3126 6.25C20.5198 6.25 20.7185 6.33231 20.8651 6.47882C21.0116 6.62534 21.0939 6.82405 21.0939 7.03125V8.59375H22.6564C22.8636 8.59375 23.0623 8.67606 23.2088 8.82257C23.3553 8.96909 23.4376 9.1678 23.4376 9.375ZM14.0626 5.46875H14.8439V6.25C14.8439 6.4572 14.9262 6.65591 15.0727 6.80243C15.2192 6.94894 15.4179 7.03125 15.6251 7.03125C15.8323 7.03125 16.031 6.94894 16.1776 6.80243C16.3241 6.65591 16.4064 6.4572 16.4064 6.25V5.46875H17.1876C17.3948 5.46875 17.5935 5.38644 17.7401 5.23993C17.8866 5.09341 17.9689 4.8947 17.9689 4.6875C17.9689 4.4803 17.8866 4.28159 17.7401 4.13507C17.5935 3.98856 17.3948 3.90625 17.1876 3.90625H16.4064V3.125C16.4064 2.9178 16.3241 2.71909 16.1776 2.57257C16.031 2.42606 15.8323 2.34375 15.6251 2.34375C15.4179 2.34375 15.2192 2.42606 15.0727 2.57257C14.9262 2.71909 14.8439 2.9178 14.8439 3.125V3.90625H14.0626C13.8554 3.90625 13.6567 3.98856 13.5102 4.13507C13.3637 4.28159 13.2814 4.4803 13.2814 4.6875C13.2814 4.8947 13.3637 5.09341 13.5102 5.23993C13.6567 5.38644 13.8554 5.46875 14.0626 5.46875ZM20.424 14.6807C19.0382 14.9544 17.6064 14.8827 16.255 14.4718C14.9036 14.0609 13.6742 13.3235 12.6754 12.3247C11.6766 11.3259 10.9392 10.0965 10.5283 8.74511C10.1174 7.39369 10.0457 5.96188 10.3195 4.57617C10.3463 4.44018 10.3364 4.29951 10.2909 4.16858C10.2455 4.03765 10.1659 3.92118 10.0606 3.83113C9.95522 3.74107 9.82779 3.68066 9.69137 3.65611C9.55496 3.63156 9.41446 3.64374 9.28431 3.69141C7.80495 4.23235 6.48574 5.13733 5.44849 6.32276C4.41124 7.50819 3.6894 8.93586 3.34962 10.4739C3.00984 12.012 3.06308 13.6109 3.50442 15.123C3.94576 16.6351 4.76097 18.0115 5.87478 19.1254C6.98859 20.2392 8.36508 21.0544 9.87715 21.4957C11.3892 21.9371 12.9881 21.9903 14.5262 21.6505C16.0643 21.3107 17.4919 20.5889 18.6774 19.5516C19.8628 18.5144 20.7678 17.1952 21.3087 15.7158C21.3564 15.5857 21.3686 15.4452 21.344 15.3088C21.3195 15.1723 21.2591 15.0449 21.169 14.9395C21.079 14.8342 20.9625 14.7547 20.8316 14.7092C20.7006 14.6637 20.5599 14.6538 20.424 14.6807Z" fill="white"/>
</g>
<defs>
<clipPath id="clip0_124_10751">
<rect width="25" height="25" fill="white"/>
</clipPath>
</defs>
</svg>
