<svg xmlns="http://www.w3.org/2000/svg" width="11" height="8" viewBox="0 0 11 8" fill="none">
  <path d="M5.5 5.56987L1.38734 1.04561L1.38734 1.04561C1.27527 0.922335 1.12003 0.85 0.954775 0.85C0.789519 0.85 0.634285 0.922335 0.522213 1.04561C0.410573 1.1684 0.35 1.33214 0.35 1.50022C0.35 1.6683 0.410573 1.83204 0.522213 1.95484L5.06738 6.95422C5.0674 6.95424 5.06742 6.95426 5.06744 6.95428C5.12283 7.01526 5.18938 7.06448 5.26371 7.09837C5.33812 7.1323 5.41846 7.15 5.5 7.15C5.58154 7.15 5.66188 7.1323 5.73629 7.09837C5.81062 7.06448 5.87717 7.01526 5.93256 6.95428C5.93258 6.95426 5.9326 6.95424 5.93262 6.95422L10.4778 1.95484C10.5332 1.89391 10.5765 1.82233 10.6058 1.74451C10.6351 1.6667 10.65 1.58373 10.65 1.50022C10.65 1.41671 10.6351 1.33374 10.6058 1.25593C10.5765 1.17811 10.5332 1.10654 10.4778 1.04561C10.4224 0.98465 10.3558 0.935449 10.2815 0.901577C10.2071 0.867682 10.1267 0.85 10.0452 0.85C9.96371 0.85 9.88339 0.867682 9.809 0.901577C9.73465 0.935449 9.66808 0.98465 9.61266 1.04561L9.61266 1.04561L5.5 5.56987Z" fill="#333333" stroke="#333333" stroke-width="0.3"/>
</svg>
