<svg width="26" height="26" viewBox="0 0 26 26" fill="none" xmlns="http://www.w3.org/2000/svg">
<path d="M24 12.9996C24.0008 13.3392 23.9138 13.6731 23.7473 13.9691C23.5808 14.265 23.3406 14.5128 23.05 14.6884L5.04 25.7059C4.73636 25.8918 4.38858 25.9933 4.0326 25.9999C3.67661 26.0065 3.32532 25.918 3.015 25.7434C2.70764 25.5715 2.4516 25.3209 2.2732 25.0173C2.09481 24.7137 2.00051 24.368 2 24.0159V1.9834C2.00051 1.63125 2.09481 1.2856 2.2732 0.981986C2.4516 0.678371 2.70764 0.42775 3.015 0.255897C3.32532 0.081333 3.67661 -0.00722598 4.0326 -0.00063363C4.38858 0.00595872 4.73636 0.107464 5.04 0.293398L23.05 11.3109C23.3406 11.4865 23.5808 11.7343 23.7473 12.0302C23.9138 12.3261 24.0008 12.6601 24 12.9996Z" fill="#5467F5"/>
</svg>
