<svg width="27" height="26" viewBox="0 0 27 26" fill="none" xmlns="http://www.w3.org/2000/svg">
<path d="M24.5 3V23C24.5 23.5304 24.2893 24.0391 23.9142 24.4142C23.5391 24.7893 23.0304 25 22.5 25H17.5C16.9696 25 16.4609 24.7893 16.0858 24.4142C15.7107 24.0391 15.5 23.5304 15.5 23V3C15.5 2.46957 15.7107 1.96086 16.0858 1.58579C16.4609 1.21071 16.9696 1 17.5 1H22.5C23.0304 1 23.5391 1.21071 23.9142 1.58579C24.2893 1.96086 24.5 2.46957 24.5 3ZM9.5 1H4.5C3.96957 1 3.46086 1.21071 3.08579 1.58579C2.71071 1.96086 2.5 2.46957 2.5 3V23C2.5 23.5304 2.71071 24.0391 3.08579 24.4142C3.46086 24.7893 3.96957 25 4.5 25H9.5C10.0304 25 10.5391 24.7893 10.9142 24.4142C11.2893 24.0391 11.5 23.5304 11.5 23V3C11.5 2.46957 11.2893 1.96086 10.9142 1.58579C10.5391 1.21071 10.0304 1 9.5 1Z" fill="#5467F5"/>
</svg>
